<svg width="22" height="22" viewBox="0 0 17 17" fill="none" xmlns="http://www.w3.org/2000/svg">
  <path d="M6.51 3.275A3.238 3.238 0 0 0 3.275 6.51a.5.5 0 0 0 1 0A2.237 2.237 0 0 1 6.51 4.275a.5.5 0 1 0 0-1z" fill="currentColor"/>
  <path d="M16.641 14.367l-3.68-3.68a.5.5 0 0 0-.706.708l3.68 3.68c.122.122.077.444-.17.69-.247.247-.567.29-.687.173l-4.47-4.573a5.932 5.932 0 1 0-.835.576l4.594 4.7a1.256 1.256 0 0 0 .898.356c.456-.01.89-.198 1.207-.525a1.505 1.505 0 0 0 .17-2.105zM2 6.862a4.862 4.862 0 1 1 9.723-.001A4.862 4.862 0 0 1 2 6.86z" fill="currentColor"/>
</svg>
